<?xml version="1.0" encoding="UTF-8" standalone="no"?>
<svg
   xmlns:dc="http://purl.org/dc/elements/1.1/"
   xmlns:cc="http://creativecommons.org/ns#"
   xmlns:rdf="http://www.w3.org/1999/02/22-rdf-syntax-ns#"
   xmlns:svg="http://www.w3.org/2000/svg"
   xmlns="http://www.w3.org/2000/svg"
   viewBox="0 0 302.35999 151.18666"
   xml:space="preserve"
   id="svg2"
   version="1.1"><metadata
     id="metadata8"><rdf:RDF><cc:Work
         rdf:about=""><dc:format>image/svg+xml</dc:format><dc:type
           rdf:resource="http://purl.org/dc/dcmitype/StillImage" /></cc:Work></rdf:RDF></metadata><defs
     id="defs6"><clipPath
       id="clipPath22"
       clipPathUnits="userSpaceOnUse"><path
         id="path20"
         d="M 1850.68,322.297 H 327.227 v 127.93 H 1850.68 Z" /></clipPath><linearGradient
       id="linearGradient32"
       spreadMethod="pad"
       gradientTransform="matrix(3.08817,-127.343,-127.343,-3.08817,1087.61,441.8)"
       gradientUnits="userSpaceOnUse"
       y2="0"
       x2="1"
       y1="0"
       x1="0"><stop
         id="stop24"
         offset="0"
         style="stop-opacity:1;stop-color:#fbe970" /><stop
         id="stop26"
         offset="0.484428"
         style="stop-opacity:1;stop-color:#cd7c1b" /><stop
         id="stop28"
         offset="0.997216"
         style="stop-opacity:1;stop-color:#fbe970" /><stop
         id="stop30"
         offset="1"
         style="stop-opacity:1;stop-color:#fbe970" /></linearGradient><clipPath
       id="clipPath54"
       clipPathUnits="userSpaceOnUse"><path
         id="path52"
         d="m 1600.84,751.332 v 29.336 c -0.12,17.059 -13.93,30.832 -30.94,30.937 h -163.47 v -0.011 c -16.94,-0.223 -30.61,-13.953 -30.73,-30.926 v -22.148 0 -0.879 h 31.06 v 22.382 h 163.03 V 758.52 739.418 H 1409.77 V 707.59 h 160.02 v -40.606 h -163.03 v 19.551 h -31.06 v -20.203 0 c 0.12,-17.031 13.89,-30.828 30.96,-30.937 h 163.46 v 0.007 c 16.93,0.246 30.6,13.965 30.72,30.93 v 22.168 0 8.895 c -0.12,-3.68 -0.31,-3.809 -0.57,2.304 -0.93,20.403 -20.56,20.949 -27.81,20.449 v 4.825 c 23.3,2.492 27.64,19.55 28.38,26.359" /></clipPath><linearGradient
       id="linearGradient64"
       spreadMethod="pad"
       gradientTransform="matrix(69.0729,-187.828,-187.828,-69.0729,1471.58,768.91)"
       gradientUnits="userSpaceOnUse"
       y2="0"
       x2="1"
       y1="0"
       x1="0"><stop
         id="stop56"
         offset="0"
         style="stop-opacity:1;stop-color:#fbe970" /><stop
         id="stop58"
         offset="0.386503"
         style="stop-opacity:1;stop-color:#cd7c1b" /><stop
         id="stop60"
         offset="0.815951"
         style="stop-opacity:1;stop-color:#fbe970" /><stop
         id="stop62"
         offset="1"
         style="stop-opacity:1;stop-color:#fbe970" /></linearGradient><clipPath
       id="clipPath80"
       clipPathUnits="userSpaceOnUse"><path
         id="path78"
         d="m 1820.47,700.012 c -0.14,-19.102 -15.67,-34.559 -34.79,-34.559 v 0.117 h -80.27 -57.27 v 80.254 34.199 h 57.27 80.37 c 19.14,-0.136 34.57,-15.656 34.57,-34.804 h 0.12 z m 28.16,56.886 c 0,29.082 -23.49,52.665 -52.52,52.86 h -122.15 -52.48 V 757.797 635.883 h 52.48 121.98 v -0.156 c 29.08,0 52.65,23.464 52.87,52.488 v 68.683 z" /></clipPath><linearGradient
       id="linearGradient90"
       spreadMethod="pad"
       gradientTransform="matrix(69.0678,-187.814,-187.814,-69.0678,1681.72,846.166)"
       gradientUnits="userSpaceOnUse"
       y2="0"
       x2="1"
       y1="0"
       x1="0"><stop
         id="stop82"
         offset="0"
         style="stop-opacity:1;stop-color:#fbe970" /><stop
         id="stop84"
         offset="0.386503"
         style="stop-opacity:1;stop-color:#cd7c1b" /><stop
         id="stop86"
         offset="0.815951"
         style="stop-opacity:1;stop-color:#fbe970" /><stop
         id="stop88"
         offset="1"
         style="stop-opacity:1;stop-color:#fbe970" /></linearGradient></defs><g
     transform="matrix(1.3333333,0,0,-1.3333333,0,151.18666)"
     id="g10"><g
       transform="scale(0.1)"
       id="g12"><path
         id="path14"
         style="fill:#231f20;fill-opacity:1;fill-rule:nonzero;stroke:none"
         d="M 2267.7,0 H 0 V 1133.9 H 2267.7 V 0" /><g
         id="g16"><g
           clip-path="url(#clipPath22)"
           id="g18"><path
             id="path34"
             style="fill:url(#linearGradient32);fill-opacity:1;fill-rule:nonzero;stroke:none"
             d="M 1850.68,322.297 H 327.227 v 127.93 H 1850.68 v -127.93" /></g></g><path
         id="path36"
         style="fill:#ffffff;fill-opacity:1;fill-rule:nonzero;stroke:none"
         d="m 1500.82,590.598 v -12.606 h -53.07 v 14.063 h 1.45 50.18 1.44 z m -1.44,9.687 h -50.18 c -5.33,0 -9.69,-4.336 -9.69,-9.687 v -43.133 h 8.24 v 20.84 1.453 h 1.45 50.18 1.44 v -1.453 -20.84 h 8.24 v 43.133 c 0,5.351 -4.33,9.687 -9.68,9.687" /><path
         id="path38"
         style="fill:#ffffff;fill-opacity:1;fill-rule:nonzero;stroke:none"
         d="m 1584.49,557.16 v -1.465 h -53.1 v 44.59 h -8.21 V 557.16 c 0,-5.359 4.32,-9.695 9.67,-9.695 h 50.18 c 5.35,0 9.7,4.336 9.7,9.695 v 43.125 h -8.24 V 557.16" /><path
         id="path40"
         style="fill:#ffffff;fill-opacity:1;fill-rule:nonzero;stroke:none"
         d="m 1668.14,568.305 c 0,-6.953 -5.64,-12.61 -12.61,-12.61 h -39.08 -1.47 v 1.465 33.516 1.449 h 1.47 l 39.08,-0.07 c 6.97,0 12.61,-5.657 12.61,-12.598 z m -13.08,31.98 h -48.22 v -52.82 h 48.22 c 11.76,0 21.33,9.57 21.33,21.328 v 10.168 c 0,11.766 -9.57,21.324 -21.33,21.324" /><path
         id="path42"
         style="fill:#ffffff;fill-opacity:1;fill-rule:nonzero;stroke:none"
         d="m 1690.49,547.465 h 8.22 v 52.82 h -8.22 v -52.82" /><path
         id="path44"
         style="fill:#ffffff;fill-opacity:1;fill-rule:nonzero;stroke:none"
         d="m 1774.1,590.598 v -34.903 h -53.06 v 36.36 h 1.46 50.16 1.44 z m -1.44,9.687 h -50.16 c -5.35,0 -9.71,-4.336 -9.71,-9.687 V 557.16 c 0,-5.359 4.36,-9.695 9.71,-9.695 h 50.16 c 5.35,0 9.68,4.336 9.68,9.695 v 33.438 c 0,5.351 -4.33,9.687 -9.68,9.687" /><path
         id="path46"
         style="fill:#ffffff;fill-opacity:1;fill-rule:nonzero;stroke:none"
         d="m 1902.73,780.07 h 6.59 c 3.16,0 5.33,0.473 6.48,1.407 1.15,0.929 1.72,2.179 1.72,3.742 0,0.996 -0.29,1.894 -0.84,2.683 -0.55,0.793 -1.31,1.368 -2.32,1.758 -0.98,0.391 -2.78,0.578 -5.45,0.578 h -6.18 z m -5.43,-18.992 v 33.738 h 11.59 c 3.94,0 6.81,-0.32 8.59,-0.937 1.76,-0.633 3.18,-1.707 4.24,-3.262 1.03,-1.551 1.56,-3.199 1.56,-4.941 0,-2.461 -0.88,-4.617 -2.64,-6.446 -1.75,-1.804 -4.08,-2.851 -6.99,-3.062 1.19,-0.5 2.15,-1.098 2.87,-1.789 1.37,-1.336 3.01,-3.566 4.96,-6.691 l 4.15,-6.61 h -6.67 l -2.98,5.32 c -2.35,4.18 -4.24,6.809 -5.71,7.856 -0.99,0.777 -2.44,1.16 -4.35,1.16 h -3.19 v -14.336 z m 13.74,43.508 c -4.42,0 -8.7,-1.145 -12.86,-3.402 -4.18,-2.254 -7.44,-5.477 -9.78,-9.668 -2.36,-4.207 -3.54,-8.563 -3.54,-13.106 0,-4.512 1.18,-8.847 3.46,-12.976 2.32,-4.141 5.57,-7.375 9.69,-9.688 4.18,-2.316 8.51,-3.469 13.03,-3.469 4.53,0 8.84,1.153 13,3.469 4.14,2.313 7.37,5.547 9.67,9.688 2.31,4.129 3.46,8.464 3.46,12.976 0,4.543 -1.19,8.899 -3.52,13.106 -2.32,4.191 -5.6,7.414 -9.78,9.668 -4.18,2.257 -8.46,3.402 -12.83,3.402 z m 0,5.172 c 5.23,0 10.39,-1.348 15.41,-4.043 5,-2.695 8.92,-6.551 11.69,-11.59 2.82,-5.02 4.2,-10.254 4.2,-15.715 0,-5.418 -1.36,-10.605 -4.14,-15.574 -2.75,-4.992 -6.6,-8.867 -11.58,-11.621 -4.98,-2.754 -10.17,-4.129 -15.58,-4.129 -5.43,0 -10.63,1.375 -15.59,4.129 -4.98,2.754 -8.85,6.629 -11.64,11.621 -2.76,4.969 -4.12,10.156 -4.12,15.574 0,5.461 1.38,10.695 4.2,15.715 2.79,5.039 6.74,8.895 11.74,11.59 5.01,2.695 10.13,4.043 15.41,4.043" /><g
         id="g48"><g
           clip-path="url(#clipPath54)"
           id="g50"><path
             id="path66"
             style="fill:url(#linearGradient64);fill-opacity:1;fill-rule:nonzero;stroke:none"
             d="m 1600.84,751.332 v 29.336 c -0.12,17.059 -13.93,30.832 -30.94,30.937 h -163.47 v -0.011 c -16.94,-0.223 -30.61,-13.953 -30.73,-30.926 v -22.148 0 -0.879 h 31.06 v 22.382 h 163.03 V 758.52 739.418 H 1409.77 V 707.59 h 160.02 v -40.606 h -163.03 v 19.551 h -31.06 v -20.203 0 c 0.12,-17.031 13.89,-30.828 30.96,-30.937 h 163.46 v 0.007 c 16.93,0.246 30.6,13.965 30.72,30.93 v 22.168 0 8.895 c -0.12,-3.68 -0.31,-3.809 -0.57,2.304 -0.93,20.403 -20.56,20.949 -27.81,20.449 v 4.825 c 23.3,2.492 27.64,19.55 28.38,26.359" /></g></g><path
         id="path68"
         style="fill:#ffffff;fill-opacity:1;fill-rule:nonzero;stroke:none"
         d="M 847.891,709.953 V 548.637 H 655.664 V 709.953 H 616.25 v -162.148 0 c 0.137,-21.649 17.656,-39.137 39.277,-39.297 l 231.973,0.293 -0.156,201.152 h -39.453" /><path
         id="path70"
         style="fill:#ffffff;fill-opacity:1;fill-rule:nonzero;stroke:none"
         d="m 1343.98,669.699 h -0.02 c -0.13,21.621 -17.63,40.246 -39.25,40.403 h -186.84 v -0.02 c -21.48,-0.312 -38.85,-18.859 -39,-40.383 v -28.144 -93.75 h 0.04 c 0.13,-21.649 17.61,-39.137 39.25,-39.297 h 186.82 v 0.031 c 21.5,0.313 38.85,17.715 39,39.266 v 28.144 z M 1304.57,548.637 H 1118.3 v 120.234 h 186.27 v -27.316 -92.918" /><path
         id="path72"
         style="fill:#ffffff;fill-opacity:1;fill-rule:nonzero;stroke:none"
         d="m 1048.65,709.953 h -80.115 v -0.019 c -21.504,-0.301 -38.847,-18.829 -38.984,-40.371 V 508.508 h 39.433 v 160.215 h 79.666 v 41.23" /><g
         id="g74"><g
           clip-path="url(#clipPath80)"
           id="g76"><path
             id="path92"
             style="fill:url(#linearGradient90);fill-opacity:1;fill-rule:nonzero;stroke:none"
             d="m 1820.47,700.012 c -0.14,-19.102 -15.67,-34.559 -34.79,-34.559 v 0.117 h -80.27 -57.27 v 80.254 34.199 h 57.27 80.37 c 19.14,-0.136 34.57,-15.656 34.57,-34.804 h 0.12 z m 28.16,56.886 c 0,29.082 -23.49,52.665 -52.52,52.86 h -122.15 -52.48 V 757.797 635.883 h 52.48 121.98 v -0.156 c 29.08,0 52.65,23.464 52.87,52.488 v 68.683 h -0.18" /></g></g><path
         id="path94"
         style="fill:#ffffff;fill-opacity:1;fill-rule:nonzero;stroke:none"
         d="m 364.766,618.734 v 50.137 h 186.289 v -50.137 z m 225.683,50.965 c -0.136,21.621 -17.636,40.246 -39.277,40.403 H 364.355 v -0.02 C 342.852,709.77 325.527,691.223 325.352,669.699 V 641.555 508.508 h 39.414 v 74.074 h 186.289 v -71.828 h 39.414 v 158.945 h -0.02" /><path
         id="path96"
         style="fill:#231f20;fill-opacity:1;fill-rule:nonzero;stroke:none"
         d="m 489.023,409.633 h -75.585 v -16.797 h 75.585 z m 16.797,0 v -67.188 h -16.797 v 33.594 h -75.585 v -33.594 h -16.797 v 67.188 c 0,9.238 7.558,16.797 16.797,16.797 h 75.585 c 9.344,0 16.797,-7.559 16.797,-16.797" /><path
         id="path98"
         style="fill:#231f20;fill-opacity:1;fill-rule:nonzero;stroke:none"
         d="m 668.574,426.43 v -67.188 c 0,-9.238 -7.558,-16.797 -16.797,-16.797 h -75.586 c -9.238,0 -16.796,7.559 -16.796,16.797 v 67.188 h 16.796 v -67.188 h 75.586 v 67.188 h 16.797" /><path
         id="path100"
         style="fill:#231f20;fill-opacity:1;fill-rule:nonzero;stroke:none"
         d="m 772.539,409.633 h -33.594 v -67.188 h -16.797 v 67.188 c 0,9.238 7.559,16.797 16.797,16.797 h 33.594 v -16.797" /><path
         id="path102"
         style="fill:#231f20;fill-opacity:1;fill-rule:nonzero;stroke:none"
         d="m 918.477,409.633 h -75.586 v -50.391 h 75.586 z m 16.796,0 v -50.391 c 0,-9.238 -7.558,-16.797 -16.796,-16.797 h -75.586 c -9.239,0 -16.797,7.559 -16.797,16.797 v 50.391 c 0,9.238 7.558,16.797 16.797,16.797 h 75.586 c 9.238,0 16.796,-7.559 16.796,-16.797" /><path
         id="path104"
         style="fill:#231f20;fill-opacity:1;fill-rule:nonzero;stroke:none"
         d="m 988.848,376.039 v 16.797 h 54.282 v -16.797 h -54.282" /><path
         id="path106"
         style="fill:#231f20;fill-opacity:1;fill-rule:nonzero;stroke:none"
         d="m 1205.86,409.633 v -67.188 h -16.8 v 67.188 h -29.39 v -67.188 h -16.8 v 67.188 h -29.39 v -67.188 h -16.8 v 67.188 c 0,9.238 7.56,16.797 16.8,16.797 h 75.58 c 9.24,0 16.8,-7.559 16.8,-16.797" /><path
         id="path108"
         style="fill:#231f20;fill-opacity:1;fill-rule:nonzero;stroke:none"
         d="m 1351.82,409.633 h -75.59 v -16.797 h 75.59 z m 16.79,0 v -67.188 h -16.79 v 33.594 h -75.59 v -33.594 h -16.8 v 67.188 c 0,9.238 7.56,16.797 16.8,16.797 h 75.59 c 9.34,0 16.79,-7.559 16.79,-16.797" /><path
         id="path110"
         style="fill:#231f20;fill-opacity:1;fill-rule:nonzero;stroke:none"
         d="m 1531.36,409.633 h -46.19 v -67.188 h -16.8 v 67.188 h -46.19 v 16.797 h 109.18 v -16.797" /><path
         id="path112"
         style="fill:#231f20;fill-opacity:1;fill-rule:nonzero;stroke:none"
         d="m 1584.93,342.445 v 83.985 h 16.8 v -83.985 h -16.8" /><path
         id="path114"
         style="fill:#231f20;fill-opacity:1;fill-rule:nonzero;stroke:none"
         d="m 1764.46,426.43 v -16.797 h -92.38 v -50.391 h 92.38 v -16.797 h -92.38 c -9.24,0 -16.8,7.559 -16.8,16.797 v 50.391 c 0,9.238 7.56,16.797 16.8,16.797 h 92.38" /></g></g></svg>
