<?xml version="1.0" encoding="utf-8"?>
<!-- Generator: Adobe Illustrator 24.1.3, SVG Export Plug-In . SVG Version: 6.00 Build 0)  -->
<svg version="1.1" id="Layer_1" xmlns="http://www.w3.org/2000/svg" xmlns:xlink="http://www.w3.org/1999/xlink" x="0px" y="0px"
	 viewBox="0 0 163.5 189.1" style="enable-background:new 0 0 163.5 189.1;" xml:space="preserve">
<style type="text/css">
	.st0{fill:#505050;}
	.st1{fill:#FFFFFF;}
</style>
<rect class="st0" width="163.5" height="189.1"/>
<g id="CLEARANCE">
</g>
<path class="st1" d="M81.4,0.8c-2.2,13.6-0.1,27.5,5.9,39.9C77.5,23.2,62.6,9,44.7,0H0v189.1l0,0c36.7,0,70.4-20.1,87.8-52.4
	C80,152.9,76,170.8,76.3,188.8c52.1-4,91-49.5,86.9-101.6C159.8,42.7,125.6,6.6,81.4,0.8L81.4,0.8z M89.7,133
	c13.6-27.9,13.4-60.6-0.4-88.4c11.9,20.8,34.1,33.7,58.1,33.7c4.5,0,8.9-0.4,13.3-1.3C130.3,85.1,104.6,105.4,89.7,133z"/>
</svg>
