<?xml version="1.0" encoding="UTF-8" standalone="no"?>
<svg
   xmlns:svg="http://www.w3.org/2000/svg"
   xmlns="http://www.w3.org/2000/svg"
   version="1.1"
   viewBox="0 0 33.938519 35.15355">
  <defs>
    <clipPath
       clipPathUnits="userSpaceOnUse"
       id="a">
      <path
         d="m 0,0 438.47,0 0,154.06 L 0,154.06 0,0 Z"/>
    </clipPath>
    <clipPath
       clipPathUnits="userSpaceOnUse"
       id="b">
      <path
         d="M 0,154.06 0,0.095947 l 439.08,0 0,153.964053"
         style="clip-rule:evenodd" />
    </clipPath>
    <clipPath
       clipPathUnits="userSpaceOnUse"
       id="c">
      <path
         d="M 0,154.06 0,0.095947 l 439.08,0 0,153.964053"
         style="clip-rule:evenodd" />
    </clipPath>
  </defs>
  <g transform="translate(578.96774,-560.49971)">
    <g transform="matrix(1.399875,0,0,-0.49045,-578.96774,595.81284)">
      <g transform="scale(0.16421,0.46736)">
        <g clip-path="url(#a)">
          <g>
            <g>
              <g
                 id="g8162"
                 clip-path="url(#b)">
                <path
                   d="m 73.368,107.39 0,0 -24.981,0 0,-8.48 29.857,-18.158 c 0.825,-0.75 0.825,-2.025 0.075,-2.851 l -29.932,-19.957 0,-9.004 22.13,0 c 9.677,0 16.729,2.251 21.155,6.678 4.201,4.126 6.301,11.629 6.301,22.283 0,10.279 -2.025,17.932 -6.076,22.589 -3.826,4.57 -10.052,6.9 -18.529,6.9 z"
                   style="fill:white;fill-opacity:1;fill-rule:nonzero;stroke:none" />
              </g>
            </g>
            <g>
              <g
                 clip-path="url(#c)">
                <path
                   d="m 117.1,53.667 0,0 C 113.58,46.164 108.85,40.387 103.15,36.41 98.349,33.109 93.172,30.708 87.696,29.357 82.445,27.932 74.793,27.332 64.215,27.332 l -36.458,0 c -1.201,0 -2.101,0.9 -2.101,2.025 l 0,29.562 c 0,0.525 0.225,1.05 0.6,1.426 L 51.537,78.802 26.256,93.883 c -0.375,0.375 -0.6,0.9 -0.6,1.425 l 0,20.932 c 0,3.38 1.35,6.3 3.976,8.7 2.626,2.33 5.776,3.53 9.452,3.53 l 31.133,0 c 17.029,0 30.003,-4.2 38.563,-12.45 8.55,-8.71 12.9,-21.537 12.9,-38.119 0,-8.928 -1.58,-17.031 -4.58,-24.234 l 0,0 z m 19.21,100.393 0,0 -124.982,0 C 5.1012,154.06 0,148.95 0,142.73 L 0,12.101 C 0,5.8732 5.1012,0.69618 11.328,0.69618 l 124.982,0 c 6.22,0 11.33,5.17702 11.33,11.40482 l 0,130.629 c 0,6.22 -5.11,11.33 -11.33,11.33 z"
                   style="fill:white;fill-opacity:1;fill-rule:nonzero;stroke:none" />
              </g>
            </g>
          </g>
        </g>
      </g>
    </g>
  </g>
</svg>
