<?xml version="1.0" encoding="utf-8"?>
<!-- Generator: Adobe Illustrator 24.1.3, SVG Export Plug-In . SVG Version: 6.00 Build 0)  -->
<svg version="1.1" id="Layer_1" xmlns="http://www.w3.org/2000/svg" xmlns:xlink="http://www.w3.org/1999/xlink" x="0px" y="0px"
	 viewBox="0 0 24 24" style="enable-background:new 0 0 24 24;" xml:space="preserve">
<style type="text/css">
	.st0{fill:#6C757D;}
</style>
<path class="st0" d="M18,12c-1.2,0-2.1,1-2.1,2.1s1,2.1,2.1,2.1s2.1-1,2.1-2.1S19.2,12,18,12 M18,17.7c-2,0-3.6-1.6-3.6-3.6
	s1.6-3.6,3.6-3.6s3.6,1.6,3.6,3.6S20,17.7,18,17.7 M18,6.3c0.8,0,1.4,0.6,1.4,1.4S18.8,9.1,18,9.1c-0.8,0-1.4-0.6-1.4-1.4
	C16.6,6.9,17.2,6.3,18,6.3 M21.6,4.9h-7.1c-0.8,0-1.4,0.6-1.4,1.4v11.4c0,0.8,0.6,1.4,1.4,1.4h7.1c0.8,0,1.4-0.6,1.4-1.4V6.3
	C23,5.5,22.4,4.9,21.6,4.9z"/>
<path class="st0" d="M6,12c-1.2,0-2.1,1-2.1,2.1s1,2.1,2.1,2.1s2.1-1,2.1-2.1S7.2,12,6,12 M6,17.7c-2,0-3.6-1.6-3.6-3.6
	S4,10.6,6,10.6s3.6,1.6,3.6,3.6S8,17.7,6,17.7 M6,6.3c0.8,0,1.4,0.6,1.4,1.4S6.8,9.1,6,9.1c-0.8,0-1.4-0.6-1.4-1.4
	C4.6,6.9,5.2,6.3,6,6.3 M9.6,4.9H2.4C1.6,4.9,1,5.5,1,6.3v11.4c0,0.8,0.6,1.4,1.4,1.4h7.1c0.8,0,1.4-0.6,1.4-1.4V6.3
	C11,5.5,10.4,4.9,9.6,4.9z"/>
</svg>
