<?xml version="1.0" encoding="UTF-8" standalone="no"?>
<!-- Created with Inkscape (http://www.inkscape.org/) -->
<svg
   xmlns:svg="http://www.w3.org/2000/svg"
   xmlns="http://www.w3.org/2000/svg"
   version="1.0"
   id="svg3039">
  <title
     id="title3848">Dolby Atmos Logo</title>
  <defs
     id="defs3043" />
  <path
     d="M 0,3.5527e-15 L 0,76.599 L 108.95,76.599 L 108.95,3.5527e-15 L 0,3.5527e-15 z M 181.45,3.5527e-15 C 175.94,3.5527e-15 171.94,0.779 168.87,2.797 C 165.66,4.879 164.18,8.401 164.18,13.882 L 164.18,25.766 C 164.18,31.285 165.75,35 168.87,36.85 C 171.39,38.624 175.46,39.448 181.45,39.448 C 187.37,39.448 191.62,38.656 194.04,36.95 C 197.16,34.991 198.73,31.098 198.73,25.766 L 198.73,13.882 C 198.73,8.66 197.18,4.945 194.04,2.797 C 191.46,0.988 187.1,3.5527e-15 181.45,3.5527e-15 z M 125.13,0.7 L 125.13,38.547 L 145.21,38.547 C 155.08,38.547 158.79,34.454 158.79,23.469 L 158.79,15.18 C 158.79,4.76 154.62,0.7 143.9,0.7 L 125.13,0.7 z M 204.92,0.7 L 204.92,38.547 L 229,38.547 L 229,32.258 L 213.41,32.258 L 213.41,0.7 L 204.92,0.7 z M 233.69,0.7 L 233.69,38.547 L 251.36,38.547 C 256.81,38.547 259.09,37.483 260.15,36.751 C 261.96,35.531 264.25,32.779 264.25,28.462 C 264.24,23.373 262.5,18.287 254.16,18.476 C 260.79,17.865 262.25,14.609 262.25,9.888 C 262.25,5.703 260.55,3.592 258.66,2.398 C 257.05,1.385 255.14,0.7 251.16,0.7 L 233.69,0.7 z M 265.04,0.7 C 266.61,3.593 277.73,24.667 277.73,24.668 L 277.73,38.547 L 286.81,38.547 C 286.81,36.668 286.81,24.668 286.81,24.668 C 286.81,24.667 298.26,3.616 299.9,0.7 L 291.91,0.7 L 282.51,17.777 L 273.53,0.7 L 265.04,0.7 z M 179.16,5.993 C 179.84,5.941 180.64,5.993 181.45,5.993 C 187.97,5.993 190.24,7.333 190.24,13.882 L 190.24,25.267 C 190.24,31.98 187.97,33.556 181.45,33.556 C 174.95,33.556 172.67,31.98 172.67,25.267 L 172.67,13.882 C 172.67,8.151 174.36,6.353 179.16,5.993 z M 242.08,6.092 L 250.37,6.092 C 253.19,6.092 254.95,8.394 254.95,11.485 C 254.95,16.233 252.76,16.341 246.26,16.578 L 246.26,20.973 C 252.05,20.95 256.66,20.504 256.66,26.565 C 256.66,29.611 254.77,33.057 249.77,33.057 L 242.08,33.057 L 242.08,32.955 L 242.08,6.092 z M 133.62,6.192 L 143.9,6.192 C 146.83,6.192 150.4,7.915 150.4,14.082 L 150.4,24.368 C 150.4,31.001 146.83,32.658 143.9,32.658 L 133.62,32.658 L 133.62,6.192 z M 12.882,9.987 L 25.264,9.987 C 38.156,9.987 48.932,22.857 48.932,38.151 C 48.935,53.883 38.156,66.612 25.264,66.612 L 12.882,66.612 L 12.882,9.987 z M 83.688,9.987 L 96.17,9.987 L 96.17,66.612 L 83.688,66.612 C 70.79,66.612 60.017,53.883 60.017,38.151 C 60.017,22.857 70.79,9.987 83.688,9.987 z M 296.4,31.359 C 294.45,31.359 292.81,32.891 292.81,34.955 C 292.81,37.035 294.45,38.547 296.4,38.547 C 298.33,38.551 300,37.033 300,34.955 C 300,32.891 298.33,31.359 296.4,31.359 z M 296.4,31.958 C 298.03,31.958 299.29,33.239 299.29,34.955 C 299.29,36.706 298.03,37.95 296.4,37.95 C 294.75,37.95 293.51,36.706 293.51,34.955 C 293.51,33.239 294.75,31.958 296.4,31.958 z M 295.01,32.856 L 295.01,37.052 L 295.7,37.052 L 295.7,35.252 L 296.4,35.252 L 297.5,37.052 L 298.1,37.052 L 297,35.252 C 297.61,35.176 297.99,34.783 297.99,34.054 C 297.99,33.233 297.59,32.856 296.6,32.856 L 295.01,32.856 z M 295.7,33.457 L 296.49,33.457 C 297.23,33.457 297.39,33.664 297.39,34.054 C 297.41,34.517 297.18,34.754 296.4,34.754 L 295.7,34.754 L 295.7,33.457 z M 220.4,47.038 C 216.72,47.038 214.06,47.617 212.01,49.135 C 209.87,50.701 208.82,53.305 208.82,57.424 L 208.82,66.411 C 208.82,70.559 209.93,73.311 212.01,74.7 C 213.7,76.033 216.41,76.697 220.4,76.697 C 224.35,76.697 227.18,76.081 228.79,74.8 C 230.88,73.326 231.98,70.418 231.98,66.411 L 231.98,57.424 C 231.98,53.5 230.89,50.749 228.79,49.135 C 227.06,47.776 224.17,47.038 220.4,47.038 z M 259.85,47.636 L 259.85,49.035 L 261.65,49.035 L 261.65,54.027 L 263.04,54.027 L 263.04,49.035 L 264.84,49.035 L 264.84,47.636 L 259.85,47.636 z M 265.55,47.636 L 265.55,54.027 L 266.84,54.027 L 266.84,49.834 L 268.34,53.03 L 268.94,53.03 L 270.54,49.435 L 270.63,54.027 L 271.83,54.027 L 271.83,47.636 L 270.24,47.636 L 268.63,50.933 L 267.14,47.636 L 265.55,47.636 z M 175.66,47.738 L 175.66,76.499 L 181.55,76.499 L 181.55,57.824 L 188.05,71.805 L 190.94,71.805 L 198.23,55.925 L 198.43,76.499 L 204.03,76.499 L 204.03,47.738 L 196.73,47.738 L 189.44,62.816 L 182.75,47.738 L 175.66,47.738 z M 149.9,47.837 L 149.9,54.13 L 157.99,54.13 L 157.99,76.599 L 164.38,76.599 L 164.38,54.13 L 172.37,54.13 L 172.37,47.837 L 149.9,47.837 z M 134.02,47.936 L 123.73,76.499 L 129.62,76.499 L 132.02,70.108 L 142.81,70.108 L 145.21,76.499 L 151,76.499 L 140.91,47.936 L 134.02,47.936 z M 243.48,48.035 C 238.36,48.035 236.39,50.32 236.39,54.229 L 236.39,58.421 C 236.39,62.291 238,63.579 242.27,64.215 L 248.36,65.114 C 249.85,65.35 250.26,65.823 250.26,67.11 L 250.26,69.808 C 250.26,70.917 249.78,71.505 248.66,71.505 L 236.48,71.505 L 236.48,74.499 C 237.55,75.745 239.86,76.103 241.57,76.097 L 249.07,76.097 C 253.88,76.097 255.55,74.077 255.55,70.006 L 255.55,65.711 C 255.55,61.653 254.32,60.429 250.56,59.92 L 243.48,58.923 C 242.3,58.767 241.57,58.35 241.57,57.024 L 241.57,54.526 C 241.57,53.149 241.88,52.73 243.07,52.73 L 254.56,52.73 L 254.56,49.633 C 253.63,48.454 251.17,48.035 249.47,48.035 L 243.48,48.035 z M 218.9,51.531 C 219.36,51.493 219.86,51.531 220.4,51.531 C 224.75,51.531 226.3,52.605 226.3,57.524 L 226.3,66.011 C 226.3,71.054 224.75,72.204 220.4,72.204 C 216.06,72.204 214.51,71.054 214.51,66.011 L 214.51,57.524 C 214.51,53.219 215.7,51.803 218.9,51.531 z M 137.41,55.827 L 140.41,63.815 L 134.22,63.915 L 137.41,55.827 z"
     id="path265" />
</svg>
