<?xml version="1.0" encoding="UTF-8" standalone="no"?>
<!-- Created with Inkscape (http://www.inkscape.org/) -->

<svg
   xmlns:dc="http://purl.org/dc/elements/1.1/"
   xmlns:cc="http://creativecommons.org/ns#"
   xmlns:rdf="http://www.w3.org/1999/02/22-rdf-syntax-ns#"
   xmlns:svg="http://www.w3.org/2000/svg"
   xmlns="http://www.w3.org/2000/svg"
   xmlns:sodipodi="http://sodipodi.sourceforge.net/DTD/sodipodi-0.dtd"
   xmlns:inkscape="http://www.inkscape.org/namespaces/inkscape"
   width="10.56887mm"
   height="13.847342mm"
   viewBox="0 0 10.56887 13.847342"
   version="1.1"
   id="svg14381"
   inkscape:version="0.92.3 (2405546, 2018-03-11)"
   sodipodi:docname="dolby-vision.svg">
  <defs
     id="defs14375">
    <clipPath
       clipPathUnits="userSpaceOnUse"
       id="clipPath8882-1">
      <path
         d="M 0,0 H 612 V 792 H 0 Z"
         id="path8880-3"
         inkscape:connector-curvature="0" />
    </clipPath>
    <clipPath
       clipPathUnits="userSpaceOnUse"
       id="clipPath8862-3">
      <path
         d="M 0,0 H 612 V 792 H 0 Z"
         id="path8860-4"
         inkscape:connector-curvature="0" />
    </clipPath>
  </defs>
  <sodipodi:namedview
     id="base"
     pagecolor="#ffffff"
     bordercolor="#666666"
     borderopacity="1.0"
     inkscape:pageopacity="0.0"
     inkscape:pageshadow="2"
     inkscape:zoom="3.959798"
     inkscape:cx="-20.91327"
     inkscape:cy="11.201659"
     inkscape:document-units="mm"
     inkscape:current-layer="svg14381"
     showgrid="false"
     inkscape:window-width="1336"
     inkscape:window-height="718"
     inkscape:window-x="940"
     inkscape:window-y="162"
     inkscape:window-maximized="0"
     fit-margin-top="0"
     fit-margin-left="0"
     fit-margin-right="0"
     fit-margin-bottom="0" />
  <metadata
     id="metadata14378">
    <rdf:RDF>
      <cc:Work
         rdf:about="">
        <dc:format>image/svg+xml</dc:format>
        <dc:type
           rdf:resource="http://purl.org/dc/dcmitype/StillImage" />
        <dc:title></dc:title>
      </cc:Work>
    </rdf:RDF>
  </metadata>
  <g
     inkscape:label="Layer 1"
     inkscape:groupmode="layer"
     id="layer1"
     transform="translate(122.14804,-83.877889)">
    <path
       inkscape:connector-curvature="0"
       id="path8842"
       style="fill:#231f20;fill-opacity:1;fill-rule:nonzero;stroke:none;stroke-width:0.35277778"
       d="m -112.06953,92.18439 -0.5648,1.023056 -0.54539,-1.023056 h -0.51153 c 0.0949,0.173214 0.76447,1.432278 0.76447,1.432278 0,0 0,0.716491 0,0.830086 h 0.54892 c 3.6e-4,-0.112889 3.6e-4,-0.826911 3.6e-4,-0.826911 0,0 0.69532,-1.261181 0.79374,-1.435453 z" />
    <path
       inkscape:connector-curvature="0"
       id="path8846"
       style="fill:#231f20;fill-opacity:1;fill-rule:nonzero;stroke:none;stroke-width:0.35277778"
       d="m -118.20984,93.654909 c 0,0.401461 -0.14005,0.492831 -0.53375,0.492831 -0.3937,0 -0.53376,-0.09137 -0.53376,-0.492831 v -0.677686 c 0,-0.391583 0.14006,-0.475897 0.53376,-0.475897 0.3937,0 0.53375,0.08431 0.53375,0.475897 z m 0.22578,-1.344436 c -0.15558,-0.108656 -0.4184,-0.165453 -0.75953,-0.165453 -0.33338,0 -0.57538,0.04621 -0.76094,0.166511 -0.19368,0.125236 -0.2854,0.334786 -0.2854,0.662517 v 0.712611 c 0,0.328789 0.0952,0.550686 0.28328,0.661106 0.1524,0.106186 0.40075,0.156633 0.76306,0.156633 0.35736,0 0.61277,-0.05186 0.75847,-0.153811 0.18909,-0.117475 0.28751,-0.346075 0.28751,-0.663928 v -0.712611 c 0,-0.312208 -0.0963,-0.535517 -0.28645,-0.663575" />
    <path
       inkscape:connector-curvature="0"
       id="path8850"
       style="fill:#231f20;fill-opacity:1;fill-rule:nonzero;stroke:none;stroke-width:0.35277778"
       d="m -120.62227,93.601469 c 0,0.396169 -0.21131,0.496006 -0.38876,0.496006 h -0.62618 v -1.580798 h 0.62618 c 0.17745,0 0.38876,0.09984 0.38876,0.468489 z m -0.39264,-1.417108 h -1.13312 v 2.262364 h 1.21249 c 0.59761,0 0.81986,-0.243417 0.81986,-0.899584 v -0.497064 c 0,-0.623005 -0.25188,-0.865716 -0.89923,-0.865716" />
    <path
       inkscape:connector-curvature="0"
       id="path8854-3"
       style="fill:#231f20;fill-opacity:1;fill-rule:nonzero;stroke:none;stroke-width:0.35277778"
       d="m -116.81213,92.184461 h -0.51047 v 2.26236 h 1.45309 v -0.37641 h -0.94262 z" />
    <path
       inkscape:connector-curvature="0"
       id="path8866-3"
       style="fill:#231f20;fill-opacity:1;fill-rule:nonzero;stroke:none;stroke-width:0.35277778"
       d="m -114.34657,93.249784 c 0.40146,-0.03669 0.4886,-0.233186 0.4886,-0.516114 0,-0.249061 -0.10584,-0.376061 -0.22119,-0.447322 -0.097,-0.06068 -0.21167,-0.101953 -0.45191,-0.101953 h -1.05798 v 2.262364 h 1.07174 c 0.32949,0 0.46672,-0.06456 0.53022,-0.108303 0.10901,-0.07302 0.25047,-0.234597 0.25047,-0.491772 0,-0.304094 -0.10548,-0.608542 -0.60995,-0.5969 m -0.27093,0.868186 h -0.46144 v -0.0021 -1.605491 -0.0018 h 0.50271 c 0.17004,0 0.27623,0.135467 0.27623,0.319969 0,0.283634 -0.13723,0.291042 -0.52882,0.305153 v 0.261761 c 0.34961,-0.0011 0.63006,-0.02223 0.63006,0.340078 0,0.182033 -0.11606,0.382411 -0.41874,0.382411" />
    <path
       d="m -122.14804,91.211786 h 10.56887 v -7.333897 h -10.56887 z m 2.4511,-0.95003 h -1.20367 v -5.434542 h 1.20367 c 1.25095,0 2.29588,1.241778 2.29588,2.706511 0,1.508831 -1.04493,2.728031 -2.29588,2.728031 m 6.87423,0 h -1.20861 c -1.25166,0 -2.29659,-1.2192 -2.29659,-2.728031 0,-1.464733 1.04493,-2.706511 2.29659,-2.706511 h 1.20861 z"
       style="fill:#231f20;fill-opacity:1;fill-rule:nonzero;stroke:none;stroke-width:0.35277778"
       id="path8868-1"
       inkscape:connector-curvature="0" />
    <path
       inkscape:connector-curvature="0"
       id="path8872-4"
       style="fill:#231f20;fill-opacity:1;fill-rule:nonzero;stroke:none;stroke-width:0.35277778"
       d="m -120.25916,95.486783 -0.75918,2.199569 h -0.36971 l -0.75918,-2.199569 h 0.31151 l 0.42827,1.271764 c 0.078,0.230364 0.1591,0.48013 0.20426,0.636058 h 0.0131 c 0.0455,-0.155928 0.12665,-0.405694 0.20426,-0.636058 l 0.42827,-1.271764 z" />
    <path
       d="m -119.74809,97.686321 h 0.29493 v -2.19922 h -0.29493 z"
       style="fill:#231f20;fill-opacity:1;fill-rule:nonzero;stroke:none;stroke-width:0.35277775"
       id="path8874-9"
       inkscape:connector-curvature="0" />
    <path
       inkscape:connector-curvature="0"
       id="path8886-8"
       style="fill:#231f20;fill-opacity:1;fill-rule:nonzero;stroke:none;stroke-width:0.35277778"
       d="m -117.60101,97.076399 c 0,-0.350308 -0.23707,-0.376061 -0.55139,-0.385939 -0.38312,-0.01305 -0.69109,-0.1397 -0.69109,-0.616655 0,-0.492831 0.40851,-0.625828 0.83679,-0.625828 0.10724,0 0.36653,0.0095 0.54821,0.07444 v 0.243417 c -0.20743,-0.06809 -0.41522,-0.07444 -0.55456,-0.07444 -0.33091,0 -0.51894,0.126295 -0.51894,0.359834 0,0.334433 0.23671,0.32773 0.53516,0.347133 0.35666,0.02293 0.70732,0.113595 0.70732,0.645583 0,0.532342 -0.4512,0.681214 -0.89535,0.681214 -0.10724,0 -0.4512,-0.0127 -0.63923,-0.09066 v -0.256116 c 0.21096,0.07761 0.50588,0.09066 0.64558,0.09066 0.41522,0 0.5775,-0.159103 0.5775,-0.392642" />
    <path
       d="m -116.72866,97.686321 h 0.29527 v -2.19922 h -0.29527 z"
       style="fill:#231f20;fill-opacity:1;fill-rule:nonzero;stroke:none;stroke-width:0.35277775"
       id="path8888-0"
       inkscape:connector-curvature="0" />
    <path
       inkscape:connector-curvature="0"
       id="path8900"
       style="fill:#231f20;fill-opacity:1;fill-rule:nonzero;stroke:none;stroke-width:0.35277778"
       d="m -114.87549,97.725231 c -0.73307,0 -0.93768,-0.428272 -0.93768,-1.138767 0,-0.710494 0.20461,-1.138414 0.93768,-1.138414 0.73307,0 0.93768,0.42792 0.93768,1.138414 0,0.710495 -0.20461,1.138767 -0.93768,1.138767 m 0,-0.243417 c 0.49283,0 0.62936,-0.288572 0.62936,-0.89535 0,-0.606425 -0.13653,-0.89535 -0.62936,-0.89535 -0.49318,0 -0.62936,0.288925 -0.62936,0.89535 0,0.606778 0.13618,0.89535 0.62936,0.89535" />
    <path
       inkscape:connector-curvature="0"
       id="path8904"
       style="fill:#231f20;fill-opacity:1;fill-rule:nonzero;stroke:none;stroke-width:0.35277778"
       d="m -112.1447,96.81362 c 0.0938,0.14605 0.1591,0.262819 0.25964,0.43815 h 0.01 c -0.006,-0.347133 -0.01,-0.833967 -0.01,-1.158169 v -0.606778 h 0.2854 v 2.199569 h -0.31468 l -0.85654,-1.326797 c -0.0942,-0.14605 -0.15875,-0.262819 -0.25929,-0.437797 h -0.01 c 0.007,0.34678 0.01,0.833614 0.01,1.157816 v 0.606778 h -0.28575 v -2.199569 h 0.31468 z" />
  </g>
</svg>
