<?xml version="1.0" encoding="UTF-8" standalone="no"?>
<!-- Created with Inkscape (http://www.inkscape.org/) -->

<svg
   xmlns:dc="http://purl.org/dc/elements/1.1/"
   xmlns:cc="http://creativecommons.org/ns#"
   xmlns:rdf="http://www.w3.org/1999/02/22-rdf-syntax-ns#"
   xmlns:svg="http://www.w3.org/2000/svg"
   xmlns="http://www.w3.org/2000/svg"
   xmlns:sodipodi="http://sodipodi.sourceforge.net/DTD/sodipodi-0.dtd"
   xmlns:inkscape="http://www.inkscape.org/namespaces/inkscape"
   width="10.637101mm"
   height="13.938457mm"
   viewBox="0 0 10.637101 13.938457"
   version="1.1"
   id="svg19303"
   inkscape:version="0.92.3 (2405546, 2018-03-11)"
   sodipodi:docname="dolby-audio.svg">
  <defs
     id="defs19297" />
  <sodipodi:namedview
     id="base"
     pagecolor="#ffffff"
     bordercolor="#666666"
     borderopacity="1.0"
     inkscape:pageopacity="0.0"
     inkscape:pageshadow="2"
     inkscape:zoom="3.959798"
     inkscape:cx="37.70463"
     inkscape:cy="38.143811"
     inkscape:document-units="mm"
     inkscape:current-layer="layer1"
     showgrid="false"
     inkscape:window-width="2560"
     inkscape:window-height="1017"
     inkscape:window-x="-8"
     inkscape:window-y="-8"
     inkscape:window-maximized="1"
     fit-margin-top="0"
     fit-margin-left="0"
     fit-margin-right="0"
     fit-margin-bottom="0" />
  <metadata
     id="metadata19300">
    <rdf:RDF>
      <cc:Work
         rdf:about="">
        <dc:format>image/svg+xml</dc:format>
        <dc:type
           rdf:resource="http://purl.org/dc/dcmitype/StillImage" />
        <dc:title></dc:title>
      </cc:Work>
    </rdf:RDF>
  </metadata>
  <g
     inkscape:label="Layer 1"
     inkscape:groupmode="layer"
     id="layer1"
     transform="translate(207.17386,-43.006911)">
    <path
       inkscape:connector-curvature="0"
       id="path8632-4"
       style="fill:#231f20;fill-opacity:1;fill-rule:nonzero;stroke:none;stroke-width:0.35277778"
       d="m -197.03026,51.367177 -0.56832,1.029758 -0.54928,-1.029758 h -0.5147 c 0.0956,0.174272 0.76941,1.44145 0.76941,1.44145 0,0 3.5e-4,0.721431 3.5e-4,0.835378 h 0.55245 c 0,-0.113595 0,-0.83185 0,-0.83185 0,0 0.69991,-1.269647 0.79904,-1.444978 z" />
    <path
       inkscape:connector-curvature="0"
       id="path8636-3"
       style="fill:#231f20;fill-opacity:1;fill-rule:nonzero;stroke:none;stroke-width:0.35277778"
       d="m -203.21029,52.847288 c 0,0.403931 -0.14111,0.496006 -0.53728,0.496006 -0.39617,0 -0.53693,-0.09208 -0.53693,-0.496006 v -0.682272 c 0,-0.3937 0.14076,-0.479072 0.53693,-0.479072 0.39617,0 0.53728,0.08537 0.53728,0.479072 z m 0.22719,-1.352903 c -0.15663,-0.109361 -0.42086,-0.166864 -0.76447,-0.166864 -0.33549,0 -0.57891,0.04657 -0.76588,0.16757 -0.19473,0.125941 -0.28716,0.336903 -0.28716,0.66675 v 0.717197 c 0,0.330906 0.096,0.554567 0.28504,0.665339 0.15346,0.107244 0.40358,0.157692 0.768,0.157692 0.35983,0 0.61701,-0.05186 0.76341,-0.154517 0.1905,-0.118181 0.28963,-0.348545 0.28963,-0.668514 v -0.717197 c 0,-0.313972 -0.097,-0.538692 -0.28857,-0.667456" />
    <path
       inkscape:connector-curvature="0"
       id="path8640-6"
       style="fill:#231f20;fill-opacity:1;fill-rule:nonzero;stroke:none;stroke-width:0.35277778"
       d="m -205.63822,52.793426 c 0,0.398639 -0.21272,0.499181 -0.39123,0.499181 h -0.63041 v -1.591028 h 0.63041 c 0.17851,0 0.39123,0.100541 0.39123,0.471664 z m -0.39546,-1.426281 h -1.14018 v 2.276828 h 1.22026 c 0.60148,0 0.82514,-0.244828 0.82514,-0.905228 v -0.500238 c 0,-0.626887 -0.25364,-0.871362 -0.90522,-0.871362" />
    <path
       inkscape:connector-curvature="0"
       id="path8644-2"
       style="fill:#231f20;fill-opacity:1;fill-rule:nonzero;stroke:none;stroke-width:0.35277778"
       d="m -201.80356,51.367249 h -0.51364 v 2.27683 h 1.46261 v -0.37853 h -0.94897 z" />
    <path
       inkscape:connector-curvature="0"
       id="path8656-3"
       style="fill:#231f20;fill-opacity:1;fill-rule:nonzero;stroke:none;stroke-width:0.35277778"
       d="m -199.32208,52.439517 c 0.40393,-0.03704 0.49177,-0.234597 0.49177,-0.519642 0,-0.250825 -0.10654,-0.378177 -0.2226,-0.450144 -0.0977,-0.06103 -0.21308,-0.102658 -0.45508,-0.102658 h -1.06469 v 2.27718 h 1.0788 c 0.33161,0 0.46954,-0.06526 0.53375,-0.109008 0.10971,-0.07338 0.25188,-0.236361 0.25188,-0.494947 0,-0.306212 -0.10618,-0.612423 -0.61383,-0.600781 m -0.2727,0.873478 h -0.46425 v -0.0018 -1.616075 -0.0014 h 0.50588 c 0.1711,0 0.27799,0.135819 0.27799,0.321733 0,0.28575 -0.13829,0.292806 -0.53234,0.306917 v 0.263878 c 0.35207,-0.0011 0.63429,-0.02222 0.63429,0.342194 0,0.182739 -0.11712,0.384528 -0.42157,0.384528" />
    <path
       d="m -207.17372,50.388079 h 10.63696 v -7.381168 h -10.63696 z m 2.46662,-0.95603 h -1.21108 v -5.469816 h 1.21108 c 1.25942,0 2.3107,1.250244 2.3107,2.72415 0,1.518708 -1.05128,2.745666 -2.3107,2.745666 m 6.91868,0 h -1.21638 c -1.25977,0 -2.3114,-1.226958 -2.3114,-2.745666 0,-1.473906 1.05163,-2.72415 2.3114,-2.72415 h 1.21638 z"
       style="fill:#231f20;fill-opacity:1;fill-rule:nonzero;stroke:none;stroke-width:0.35277778"
       id="path8658-3"
       inkscape:connector-curvature="0" />
    <path
       inkscape:connector-curvature="0"
       id="path8662-5"
       style="fill:#231f20;fill-opacity:1;fill-rule:nonzero;stroke:none;stroke-width:0.35277778"
       d="m -205.66274,56.342968 h -0.98919 l -0.19191,0.561975 h -0.31644 l 0.81103,-2.281414 h 0.38347 l 0.81457,2.281414 h -0.31644 z m -0.90523,-0.238831 h 0.82092 l -0.28928,-0.848077 c -0.054,-0.161573 -0.0808,-0.252236 -0.11783,-0.370064 h -0.007 c -0.037,0.117828 -0.0638,0.208491 -0.11783,0.370064 z" />
    <path
       inkscape:connector-curvature="0"
       id="path8666-3"
       style="fill:#231f20;fill-opacity:1;fill-rule:nonzero;stroke:none;stroke-width:0.35277778"
       d="m -204.4132,56.733348 c -0.16475,-0.1651 -0.19861,-0.386997 -0.19861,-0.605719 v -1.503892 h 0.30621 v 1.564569 c 0,0.1143 0.0134,0.26917 0.12806,0.38347 0.0942,0.09419 0.21519,0.137936 0.43391,0.137936 0.21872,0 0.33973,-0.04375 0.43392,-0.137936 0.11465,-0.1143 0.12806,-0.26917 0.12806,-0.38347 v -1.564569 h 0.30621 v 1.503892 c 0,0.218722 -0.0339,0.440619 -0.19862,0.605719 -0.14463,0.144639 -0.34642,0.212019 -0.66957,0.212019 -0.32279,0 -0.52493,-0.06738 -0.66957,-0.212019" />
    <path
       inkscape:connector-curvature="0"
       id="path8670-7"
       style="fill:#231f20;fill-opacity:1;fill-rule:nonzero;stroke:none;stroke-width:0.35277778"
       d="m -200.58517,56.679479 c -0.16157,0.161219 -0.36019,0.225425 -0.6664,0.225425 h -0.80751 V 54.62349 h 0.80751 c 0.30621,0 0.50483,0.06385 0.6664,0.225425 0.18486,0.185208 0.28257,0.484717 0.28257,0.915106 0,0.430741 -0.0977,0.73025 -0.28257,0.915458 m -0.24236,-1.675694 c -0.1076,-0.107598 -0.24906,-0.141464 -0.43074,-0.141464 h -0.49459 v 1.803752 h 0.49459 c 0.18168,0 0.32314,-0.03387 0.43074,-0.141463 0.13441,-0.134762 0.20532,-0.379942 0.20532,-0.760589 0,-0.379942 -0.0709,-0.625828 -0.20532,-0.760236" />
    <path
       d="m -199.55336,56.904939 h 0.30621 v -2.28106 h -0.30621 z"
       style="fill:#231f20;fill-opacity:1;fill-rule:nonzero;stroke:none;stroke-width:0.35277775"
       id="path8672-5"
       inkscape:connector-curvature="0" />
    <path
       inkscape:connector-curvature="0"
       id="path8684"
       style="fill:#231f20;fill-opacity:1;fill-rule:nonzero;stroke:none;stroke-width:0.35277778"
       d="m -197.52514,56.945229 c -0.76024,0 -0.97226,-0.444147 -0.97226,-1.1811 0,-0.736953 0.21202,-1.180747 0.97226,-1.180747 0.76024,0 0.97261,0.443794 0.97261,1.180747 0,0.736953 -0.21237,1.1811 -0.97261,1.1811 m 0,-0.252236 c 0.51153,0 0.65299,-0.299508 0.65299,-0.928864 0,-0.629356 -0.14146,-0.928511 -0.65299,-0.928511 -0.51153,0 -0.65264,0.299155 -0.65264,0.928511 0,0.629356 0.14111,0.928864 0.65264,0.928864" />
  </g>
</svg>
