<?xml version="1.0" encoding="UTF-8" standalone="no"?>
<!-- Created with Inkscape (http://www.inkscape.org/) -->

<svg
   xmlns:dc="http://purl.org/dc/elements/1.1/"
   xmlns:cc="http://creativecommons.org/ns#"
   xmlns:rdf="http://www.w3.org/1999/02/22-rdf-syntax-ns#"
   xmlns:svg="http://www.w3.org/2000/svg"
   xmlns="http://www.w3.org/2000/svg"
   xmlns:sodipodi="http://sodipodi.sourceforge.net/DTD/sodipodi-0.dtd"
   xmlns:inkscape="http://www.inkscape.org/namespaces/inkscape"
   version="1.0"
   viewBox="0 0 300.00186 48.940045"
   id="Layer_1"
   xml:space="preserve"
   style="overflow:visible"
   inkscape:version="0.91 r13725"
   sodipodi:docname="hdmi.svg"><metadata
     id="metadata50"><rdf:RDF><cc:Work
         rdf:about=""><dc:format>image/svg+xml</dc:format><dc:type
           rdf:resource="http://purl.org/dc/dcmitype/StillImage" /><dc:title></dc:title></cc:Work></rdf:RDF></metadata><sodipodi:namedview
     pagecolor="#ffffff"
     bordercolor="#666666"
     borderopacity="1"
     objecttolerance="10"
     gridtolerance="10"
     guidetolerance="10"
     inkscape:pageopacity="0"
     inkscape:pageshadow="2"
     inkscape:window-width="2560"
     inkscape:window-height="1017"
     id="namedview48"
     showgrid="false"
     fit-margin-top="0"
     fit-margin-left="0"
     fit-margin-right="0"
     fit-margin-bottom="0"
     inkscape:zoom="3.84"
     inkscape:cx="137.51448"
     inkscape:cy="45.84928"
     inkscape:window-x="-8"
     inkscape:window-y="-8"
     inkscape:window-maximized="1"
     inkscape:current-layer="Layer_1" /><defs
     id="defs3077" /><g
     transform="matrix(0.20615142,0,0,0.20615142,-0.25768928,-0.25790671)"
     fill="white"
     id="g3258"><g
       id="g3248"><polygon
         points="1446.8,2.15 1456.5,2.15 1456.5,36.25 1450.3,36.25 1450.3,10.2 1450.2,10.2 1440.6,36.25 1435.5,36.25 1425.9,10.2 1425.7,10.2 1425.7,36.25 1419.5,36.25 1419.5,2.15 1429.2,2.15 1438.1,25.15 "
         id="polygon2993" /><polygon
         points="1384.3,7.9 1384.3,2.15 1411.4,2.15 1411.4,7.9 1401,7.9 1401,36.25 1394.8,36.25 1394.8,7.9 "
         id="polygon2995" /></g><g
       id="g3252"><polygon
         points="1347.6,153.5 1347.6,238.55 1254.8,238.55 1254.8,1.25 1347.6,1.25 1347.6,98.15 1347.3,130.1 "
         id="polygon2997" /><path
         d="m 1216.8,63.65 0,175 -89.8,0 0,-178.2 -85.6,0 0,178.2 -89.45,0 0,-178.2 -85.55,0 0,178.2 -89.95,0 0,-237.4 378.4,0 c 17.05,0 31.65,6.1 43.8,18.2 12.1,12.15 18.2,26.9 18.2,44.2 z"
         id="path3005"
         inkscape:connector-curvature="0" /><path
         d="m 738.95,63.65 0,112.5 c 0,17.351 -6.149,32.051 -18.399,44.2 -12.25,12.101 -26.9,18.2 -44,18.2 l -287,0 -0.4,-140.4 89.85,0 0.4,81.35 169.7,0 0,-119.2 -259.95,0 0.4,-59.05 287,0 c 17.1,0 31.75,6.1 44,18.2 12.25,12.15 18.4,26.85 18.4,44.2 z"
         id="path3033"
         inkscape:connector-curvature="0" /><polygon
         points="256,238.55 256,153.5 94.1,153.5 94.1,238.55 1.25,238.55 1.25,1.25 94.1,1.25 94.1,98.15 256,98.15 256,1.25 350.3,1.25 350.3,238.55 "
         id="polygon3053" /></g></g></svg>
