<?xml version="1.0" encoding="UTF-8" standalone="no"?>
<!-- Created with Inkscape (http://www.inkscape.org/) -->

<svg
   xmlns:dc="http://purl.org/dc/elements/1.1/"
   xmlns:cc="http://creativecommons.org/ns#"
   xmlns:rdf="http://www.w3.org/1999/02/22-rdf-syntax-ns#"
   xmlns:svg="http://www.w3.org/2000/svg"
   xmlns="http://www.w3.org/2000/svg"
   xmlns:sodipodi="http://sodipodi.sourceforge.net/DTD/sodipodi-0.dtd"
   xmlns:inkscape="http://www.inkscape.org/namespaces/inkscape"
   version="1.1"
   id="svg815"
   xml:space="preserve"
   viewBox="0 0 63.0084 55.499866"
   sodipodi:docname="monolith-logo-white.svg"
   inkscape:version="0.92.4 (5da689c313, 2019-01-14)"><metadata
     id="metadata821"><rdf:RDF><cc:Work
         rdf:about=""><dc:format>image/svg+xml</dc:format><dc:type
           rdf:resource="http://purl.org/dc/dcmitype/StillImage" /><dc:title></dc:title></cc:Work></rdf:RDF></metadata><defs
     id="defs819"><clipPath
       clipPathUnits="userSpaceOnUse"
       id="clipPath837"><path
         d="M 0,504 H 360 V 0 H 0 Z"
         id="path835"
         inkscape:connector-curvature="0" /></clipPath></defs><sodipodi:namedview
     pagecolor="#ffffff"
     bordercolor="#666666"
     borderopacity="1"
     objecttolerance="10"
     gridtolerance="10"
     guidetolerance="10"
     inkscape:pageopacity="0"
     inkscape:pageshadow="2"
     inkscape:window-width="2560"
     inkscape:window-height="1017"
     id="namedview817"
     showgrid="false"
     fit-margin-top="0"
     fit-margin-left="0"
     fit-margin-right="0"
     fit-margin-bottom="0"
     inkscape:zoom="10.095238"
     inkscape:cx="20.809584"
     inkscape:cy="21.861911"
     inkscape:window-x="-8"
     inkscape:window-y="-8"
     inkscape:window-maximized="1"
     inkscape:current-layer="g823" /><g
     id="g823"
     inkscape:groupmode="layer"
     inkscape:label="33305_Manual_190219"
     transform="matrix(1.3333333,0,0,-1.3333333,-203.74043,719.74896)"><g
       id="g831"
       transform="translate(-347.16864,-16.64151)"
       style="fill:#505050"><g
         id="g833"
         clip-path="url(#clipPath837)"
         transform="translate(342.93397,92.122644)"
         style="fill:#505050"><g
           id="g1037"
           transform="translate(162.127,426.3389)"
           style="fill:#505050"><path
             d="M 0,0 -1.537,-3.104 H -2.292 L -3.821,0 v -3.577 h -1.266 v 5.681 h 1.714 l 1.464,-3.121 1.47,3.121 H 1.266 V -3.577 H 0 Z"
             style="fill:#505050;fill-opacity:1;fill-rule:nonzero;stroke:none"
             id="path1039"
             inkscape:connector-curvature="0" /></g><g
           id="g1041"
           transform="translate(169.5347,425.6357)"
           style="fill:#505050"><path
             d="M 0,0 C 0,0.506 -0.162,0.939 -0.487,1.296 -0.812,1.654 -1.213,1.833 -1.686,1.833 -2.16,1.833 -2.56,1.654 -2.884,1.296 -3.209,0.939 -3.373,0.506 -3.373,0 c 0,-0.506 0.164,-0.938 0.489,-1.293 0.324,-0.354 0.724,-0.531 1.198,-0.531 0.473,0 0.874,0.177 1.199,0.531 C -0.162,-0.938 0,-0.506 0,0 m 0.431,-2.087 c -0.575,-0.561 -1.282,-0.843 -2.122,-0.843 -0.838,0 -1.545,0.282 -2.122,0.843 -0.573,0.56 -0.86,1.257 -0.86,2.09 0,0.834 0.287,1.532 0.86,2.093 0.577,0.562 1.284,0.841 2.122,0.841 0.84,0 1.547,-0.279 2.122,-0.841 0.575,-0.561 0.862,-1.259 0.862,-2.093 0,-0.833 -0.287,-1.53 -0.862,-2.09"
             style="fill:#505050;fill-opacity:1;fill-rule:nonzero;stroke:none"
             id="path1043"
             inkscape:connector-curvature="0" /></g><g
           id="g1045"
           transform="translate(176.2554,428.4434)"
           style="fill:#505050"><path
             d="M 0,0 H 1.266 V -5.681 H 0 l -2.707,3.56 v -3.56 H -3.974 V 0 h 1.185 L 0,-3.658 Z"
             style="fill:#505050;fill-opacity:1;fill-rule:nonzero;stroke:none"
             id="path1047"
             inkscape:connector-curvature="0" /></g><g
           id="g1049"
           transform="translate(183.6631,425.6357)"
           style="fill:#505050"><path
             d="M 0,0 C 0,0.506 -0.163,0.939 -0.487,1.296 -0.812,1.654 -1.211,1.833 -1.686,1.833 -2.16,1.833 -2.56,1.654 -2.885,1.296 -3.209,0.939 -3.373,0.506 -3.373,0 c 0,-0.506 0.164,-0.938 0.488,-1.293 0.325,-0.354 0.725,-0.531 1.199,-0.531 0.475,0 0.874,0.177 1.199,0.531 C -0.163,-0.938 0,-0.506 0,0 M 0.431,-2.087 C -0.144,-2.648 -0.851,-2.93 -1.69,-2.93 c -0.839,0 -1.546,0.282 -2.121,0.843 -0.575,0.56 -0.862,1.257 -0.862,2.09 0,0.834 0.287,1.532 0.862,2.093 0.575,0.562 1.282,0.841 2.121,0.841 0.839,0 1.546,-0.279 2.121,-0.841 0.575,-0.561 0.862,-1.259 0.862,-2.093 0,-0.833 -0.287,-1.53 -0.862,-2.09"
             style="fill:#505050;fill-opacity:1;fill-rule:nonzero;stroke:none"
             id="path1051"
             inkscape:connector-curvature="0" /></g><g
           id="g1053"
           transform="translate(186.4102,422.7637)"
           style="fill:#505050"><path
             d="M 0,0 V 5.68 H 1.267 V 1.13 H 3.689 V 0 Z"
             style="fill:#505050;fill-opacity:1;fill-rule:nonzero;stroke:none"
             id="path1055"
             inkscape:connector-curvature="0" /></g><path
           d="m 191.314,428.443 h 1.266 v -5.681 h -1.266 z"
           style="fill:#505050;fill-opacity:1;fill-rule:nonzero;stroke:none"
           id="path1057"
           inkscape:connector-curvature="0" /><g
           id="g1059"
           transform="translate(196.6748,427.3467)"
           style="fill:#505050"><path
             d="M 0,0 V -4.584 H -1.267 V 0 H -2.875 V 1.097 H 1.61 V 0 Z"
             style="fill:#505050;fill-opacity:1;fill-rule:nonzero;stroke:none"
             id="path1061"
             inkscape:connector-curvature="0" /></g><g
           id="g1063"
           transform="translate(203.0293,428.4434)"
           style="fill:#505050"><path
             d="M 0,0 H 1.267 V -5.681 H 0 v 2.235 H -2.258 V -5.681 H -3.527 V 0 h 1.269 V -2.373 H 0 Z"
             style="fill:#505050;fill-opacity:1;fill-rule:nonzero;stroke:none"
             id="path1065"
             inkscape:connector-curvature="0" /></g><path
           d="m 164.655,432.942 h 32.084 v -1.498 h -32.084 z"
           style="fill:#505050;fill-opacity:1;fill-rule:nonzero;stroke:none"
           id="path1067"
           inkscape:connector-curvature="0" /><g
           id="g1069"
           transform="translate(181.4404,456.5459)"
           style="fill:#505050"><path
             d="M 0,0 V -22.1 H 10.554 V 5.371 Z"
             style="fill:#505050;fill-opacity:1;fill-rule:nonzero;stroke:none"
             id="path1071"
             inkscape:connector-curvature="0" /></g><g
           id="g1073"
           transform="translate(196.7378,464.3306)"
           style="fill:#505050"><path
             d="M 0,0 -3.378,-1.718 V -29.886 H 0 Z"
             style="fill:#505050;fill-opacity:1;fill-rule:nonzero;stroke:none"
             id="path1075"
             inkscape:connector-curvature="0" /></g><g
           id="g1077"
           transform="translate(169.3726,434.4458)"
           style="fill:#505050"><path
             d="M 0,0 H 10.578 V 22.1 L 0,27.485 Z"
             style="fill:#505050;fill-opacity:1;fill-rule:nonzero;stroke:none"
             id="path1079"
             inkscape:connector-curvature="0" /></g><g
           id="g1081"
           transform="translate(164.6538,464.3306)"
           style="fill:#505050"><path
             d="M 0,0 V -29.886 H 3.352 V -1.705 Z"
             style="fill:#505050;fill-opacity:1;fill-rule:nonzero;stroke:none"
             id="path1083"
             inkscape:connector-curvature="0" /></g></g></g></g></svg>
