<?xml version="1.0" encoding="utf-8"?>
<!-- Generator: Adobe Illustrator 24.1.2, SVG Export Plug-In . SVG Version: 6.00 Build 0)  -->
<svg version="1.1" id="Layer_1" xmlns="http://www.w3.org/2000/svg" xmlns:xlink="http://www.w3.org/1999/xlink" x="0px" y="0px"
	 viewBox="0 0 177.4 241.8" style="enable-background:new 0 0 177.4 241.8;" xml:space="preserve">
<style type="text/css">
	.st0{fill:url(#SVGID_1_);}
	.st1{fill:url(#SVGID_2_);}
	.st2{fill:url(#SVGID_3_);}
	.st3{fill:url(#SVGID_4_);}
	.st4{fill:url(#SVGID_5_);}
	.st5{fill:#404040;}
	.st6{font-family:'Arial-BoldMT';}
	.st7{font-size:45px;}
	.st8{fill:url(#SVGID_8_);}
	.st9{fill:url(#SVGID_9_);}
	.st10{fill:url(#SVGID_10_);}
	.st11{fill:url(#SVGID_11_);}
</style>
<g transform="matrix( 1, 0, 0, 1, 0,0) ">
	<g transform="matrix( 1, 0, 0, 1, 0,0) ">
		<g>
			<g id="shape_1_0_Layer3_0_FILL">
				
					<linearGradient id="SVGID_1_" gradientUnits="userSpaceOnUse" x1="177.0741" y1="15.9323" x2="36.8991" y2="186.2823" gradientTransform="matrix(1 0 0 -1 0 244.2)">
					<stop  offset="0" style="stop-color:#0D3D6A"/>
					<stop  offset="0.1333" style="stop-color:#6FAAE4"/>
					<stop  offset="1" style="stop-color:#C6DDF4"/>
				</linearGradient>
				<path class="st0" d="M138.1,241.8c22.4-8.3,35.5-21.4,39.4-39.1V0H0v241.8H138.1z"/>
				
					<linearGradient id="SVGID_2_" gradientUnits="userSpaceOnUse" x1="160.1461" y1="19.5935" x2="177.1461" y2="2.5185" gradientTransform="matrix(1 0 0 -1 0 244.2)">
					<stop  offset="0" style="stop-color:#0D3D6A"/>
					<stop  offset="0.3373" style="stop-color:#77B3EE"/>
					<stop  offset="1" style="stop-color:#F9FAFD"/>
				</linearGradient>
				<path class="st1" d="M177.4,241.8v-39.1c-3.8,17.8-16.9,30.8-39.4,39.1H177.4z"/>
			</g>
		</g>
	</g>
	<g transform="matrix( 1, 0, 0, 1, 0,0) ">
		<g>
			<g id="shape_1_0_Layer2_0_FILL">
				
					<linearGradient id="SVGID_3_" gradientUnits="userSpaceOnUse" x1="109.1569" y1="95.5604" x2="167.0319" y2="15.9854" gradientTransform="matrix(1 0 0 -1 0 244.2)">
					<stop  offset="0" style="stop-color:#FFFFFF"/>
					<stop  offset="1" style="stop-color:#C5D6ED;stop-opacity:0.6"/>
				</linearGradient>
				<path class="st2" d="M142.6,231.9c2.7-8.7,3-17.1,0.8-24.9c9.6,1.7,17.7,1.7,24.1,0.2V7.2H8.5v224.6H142.6z"/>
			</g>
		</g>
	</g>
	<g transform="matrix( 1, 0, 0, 1, 0,0) ">
		<g>
			<g id="shape_1_0_Layer1_0_FILL">
				
					<linearGradient id="SVGID_4_" gradientUnits="userSpaceOnUse" x1="173.9766" y1="-0.3201" x2="144.7016" y2="39.5549" gradientTransform="matrix(1 0 0 -1 0 244.2)">
					<stop  offset="0" style="stop-color:#000000"/>
					<stop  offset="1" style="stop-color:#000000;stop-opacity:0"/>
				</linearGradient>
				<path class="st3" d="M138.1,242.3c19.3-11.4,32.4-24.7,39.1-39.8c-7.2,5.7-18.5,7.1-34,4.4C146.4,217.8,144.7,229.6,138.1,242.3
					z"/>
			</g>
		</g>
	</g>
	<g transform="matrix( 1, 0, 0, 1, 0,0) ">
		<g>
			<g id="shape_1_0_Layer0_0_FILL">
				
					<linearGradient id="SVGID_5_" gradientUnits="userSpaceOnUse" x1="162.0397" y1="16.3358" x2="150.5897" y2="30.5108" gradientTransform="matrix(1 0 0 -1 0 244.2)">
					<stop  offset="0" style="stop-color:#0D3D6A"/>
					<stop  offset="0.4392" style="stop-color:#77B3EE"/>
					<stop  offset="1" style="stop-color:#F9FAFD"/>
				</linearGradient>
				<path class="st4" d="M177.1,202.7c-7.6,7.5-17.5,10.5-29.6,9.1c1.7,10.1-1.5,20.1-9.7,30.2C160.4,233.6,173.5,220.5,177.1,202.7
					z"/>
			</g>
		</g>
	</g>
</g>
<g transform="matrix( 1, 0, 0, 1, 56,173.85) ">
	<g transform="matrix( 1, 0, 0, 1, 0,0) ">
		<g>
			<defs>
				<rect id="SVGID_6_" x="-19.3" y="-9.1" width="157.4" height="113.4"/>
			</defs>
			<clipPath id="SVGID_7_">
				<use xlink:href="#SVGID_6_"  style="overflow:visible;"/>
			</clipPath>
			<text transform="matrix(1 0 0 1 -17.25 38.15)" class="st5 st6 st7">PCM</text>
		</g>
	</g>
</g>
<g transform="matrix( 1, 0, 0, 1, 0,0) ">
	<g transform="matrix( 1, 0, 0, 1, 0,0) ">
		<g>
			<g id="shape_4_0_Layer5_0_FILL">
				<path class="st5" d="M70.1,13.4c-2.1-3.5-4.2-3.8-6.3-0.9v107.3c-4.7-0.9-10.3-0.2-16.8,2.3c-6.7,2.5-12.4,6.1-17.1,10.8
					c-4.7,4.6-7.1,9-7.1,13c0,4,2.4,6.5,7.1,7.6c4.7,1.1,10.4,0.3,17.1-2.3c6.7-2.5,12.4-6.1,17.1-10.8c4.7-4.6,7.1-9,7.1-13v-0.1
					l-0.1-0.5V40.4c1.5,2.2,6.4,4.3,14.7,6.4c8.3,2,15.1,7.5,20.4,16.5c-1-16.2-5.6-26.3-13.7-30.2C82.8,28.5,75.3,21.9,70.1,13.4z"
					/>
			</g>
		</g>
	</g>
	<g transform="matrix( 1, 0, 0, 1, 0,0) ">
		<g>
			<g id="shape_4_0_Layer4_0_FILL">
				
					<radialGradient id="SVGID_8_" cx="-196.5017" cy="48.9271" r="23.7002" gradientTransform="matrix(0.866 -0.5 -0.3407 -0.5902 228.0961 60.5259)" gradientUnits="userSpaceOnUse">
					<stop  offset="0" style="stop-color:#FFFFFF"/>
					<stop  offset="1" style="stop-color:#FFFFFF;stop-opacity:0"/>
				</radialGradient>
				<path class="st8" d="M33.6,133.1c-2.7,2.9-3.9,5.4-3.7,7.6c0.2,2.1,1.8,3.3,4.8,3.4c3,0.1,6.5-0.8,10.6-2.8
					c4-2,7.3-4.4,10.1-7.4c2.7-2.9,3.9-5.4,3.7-7.5c-0.2-2.1-1.8-3.2-4.8-3.3c-3-0.1-6.5,0.8-10.6,2.8
					C39.6,127.7,36.3,130.2,33.6,133.1z"/>
			</g>
		</g>
	</g>
	<g transform="matrix( 1, 0, 0, 1, 0,0) ">
		<g>
			<g id="shape_4_0_Layer3_0_FILL">
				
					<linearGradient id="SVGID_9_" gradientUnits="userSpaceOnUse" x1="68.15" y1="209.825" x2="103.45" y2="209.825" gradientTransform="matrix(1 0 0 -1 0 244.2)">
					<stop  offset="0" style="stop-color:#FFFFFF;stop-opacity:0"/>
					<stop  offset="0.5098" style="stop-color:#FFFFFF"/>
					<stop  offset="1" style="stop-color:#FFFFFF;stop-opacity:0"/>
				</linearGradient>
				<path class="st9" d="M68.1,14c2.6,10.5,8.4,17.6,17.4,21.5c9.7,4.1,15.7,10.5,17.9,19.2c-1.6-10.5-7.2-17.9-16.9-22
					C77.5,28.8,71.4,22.6,68.1,14z"/>
			</g>
		</g>
	</g>
	<g transform="matrix( 1, 0, 0, 1, 0,0) ">
		<g>
			<g id="shape_4_0_Layer2_0_FILL">
				<path class="st5" d="M123.1,54.4c1.5,2.2,6.4,4.3,14.7,6.4c8.3,2,15.1,7.5,20.4,16.5c-1-16.2-5.6-26.3-13.7-30.2
					c-9.8-4.6-17.2-11.2-22.4-19.7c-2.1-3.5-4.2-3.8-6.3-0.9v107.4c-4.7-0.9-10.3-0.2-16.8,2.3c-6.7,2.5-12.4,6.1-17.1,10.8
					c-4.7,4.6-7.1,9-7.1,13c0,4,2.4,6.5,7.1,7.6c4.7,1.1,10.4,0.3,17.1-2.3c6.7-2.5,12.4-6.1,17.1-10.8c4.7-4.6,7.1-9,7.1-13v-0.1
					l-0.1-0.5V54.4z"/>
			</g>
		</g>
	</g>
	<g transform="matrix( 1, 0, 0, 1, 0,0) ">
		<g>
			<g id="shape_4_0_Layer1_0_FILL">
				
					<radialGradient id="SVGID_10_" cx="-196.5017" cy="48.9271" r="23.7002" gradientTransform="matrix(0.866 -0.5 -0.3407 -0.5902 280.0961 74.5259)" gradientUnits="userSpaceOnUse">
					<stop  offset="0" style="stop-color:#FFFFFF"/>
					<stop  offset="1" style="stop-color:#FFFFFF;stop-opacity:0"/>
				</radialGradient>
				<path class="st10" d="M110.9,140.3c-0.2-2.1-1.8-3.2-4.8-3.3c-3-0.1-6.5,0.8-10.6,2.8c-4,1.9-7.4,4.4-10,7.3
					c-2.7,2.9-3.9,5.4-3.7,7.6c0.2,2.1,1.8,3.3,4.8,3.4c3,0.1,6.5-0.8,10.6-2.8c4-2,7.3-4.4,10.1-7.4
					C109.9,144.9,111.1,142.4,110.9,140.3z"/>
			</g>
		</g>
	</g>
	<g transform="matrix( 1, 0, 0, 1, 0,0) ">
		<g>
			<g id="shape_4_0_Layer0_0_FILL">
				
					<linearGradient id="SVGID_11_" gradientUnits="userSpaceOnUse" x1="120.15" y1="195.825" x2="155.45" y2="195.825" gradientTransform="matrix(1 0 0 -1 0 244.2)">
					<stop  offset="0" style="stop-color:#FFFFFF;stop-opacity:0"/>
					<stop  offset="0.5098" style="stop-color:#FFFFFF"/>
					<stop  offset="1" style="stop-color:#FFFFFF;stop-opacity:0"/>
				</linearGradient>
				<path class="st11" d="M155.4,68.8c-1.6-10.5-7.2-17.9-16.9-22c-9-3.9-15.1-10.2-18.4-18.7c2.6,10.5,8.4,17.6,17.4,21.5
					C147.2,53.7,153.2,60.1,155.4,68.8z"/>
			</g>
		</g>
	</g>
</g>
</svg>
